Complete name                    : D:\LOW\Avanti! (1972).mkv Format                           : Matroska Format version                   : Version 2 File size                        : 1.58 GiB Duration                         : 2h 24mn Overall bit rate                 : 1 572 Kbps Encoded date                     : UTC 2011-10-26 14:45:31 Writing application              : mkvmerge v3.4.0 ('Rapunzel') built on May 15 2010 09:38:20 Writing library                  : libebml v0.8.0 + libmatroska v0.9.0  Video ID                               : 1 Format                           : AVC Format/Info                      : Advanced Video Codec Format profile                   : High@L3.0 Format settings, CABAC           : Yes Format settings, ReFrames        : 4 frames Codec ID                         : V_MPEG4/ISO/AVC Duration                         : 2h 24mn Bit rate                         : 1 348 Kbps Width                            : 720 pixels Height                           : 400 pixels Display aspect ratio             : 16:9 Frame rate                       : 23.976 fps Color space                      : YUV Chroma subsampling               : 4:2:0 Bit depth                        : 8 bits Scan type                        : Progressive Bits/(Pixel*Frame)               : 0.195 Stream size                      : 1.36 GiB (86%) Writing library                  : x264 core 118 Encoding settings                : cabac=1 / ref=3 / deblock=1:0:0 / analyse=0x3:0x113 / me=hex / subme=7 / psy=1 / psy_rd=1.00:0.00 / mixed_ref=1 / me_range=16 / chroma_me=1 / trellis=1 / 8x8dct=1 / cqm=0 / deadzone=21,11 / fast_pskip=1 / chroma_qp_offset=-2 / threads=9 / sliced_threads=0 / nr=0 / decimate=1 / interlaced=0 / bluray_compat=0 / constrained_intra=0 / bframes=3 / b_pyramid=2 / b_adapt=1 / b_bias=0 / direct=1 / weightb=1 / open_gop=0 / weightp=2 / keyint=240 / keyint_min=24 / scenecut=40 / intra_refresh=0 / rc_lookahead=50 / rc=crf / mbtree=1 / crf=19.0 / qcomp=0.60 / qpmin=3 / qpmax=69 / qpstep=4 / ip_ratio=1.40 / aq=1:1.00 Color primaries                  : BT.601-6 525, BT.1358 525, BT.1700 NTSC, SMPTE 170M Transfer characteristics         : BT.709-5, BT.1361 Matrix coefficients              : BT.601-6 525, BT.1358 525, BT.1700 NTSC, SMPTE 170M  Audio ID                               : 2 Format                           : AC-3 Format/Info                      : Audio Coding 3 Mode extension                   : CM (complete main) Codec ID                         : A_AC3 Duration                         : 2h 24mn Bit rate mode                    : Constant Bit rate                         : 192 Kbps Channel(s)                       : 2 channels Channel positions                : Front: L R Sampling rate                    : 48.0 KHz Bit depth                        : 16 bits Compression mode                 : Lossy Stream size                      : 198 MiB (12%) Language                         : English  Text #1 ID                               : 3 Format                           : UTF-8 Codec ID                         : S_TEXT/UTF8 Codec ID/Info                    : UTF-8 Plain Text Language                         : English  Text #2 ID                               : 4 Format                           : VobSub Muxing mode                      : zlib Codec ID                         : S_VOBSUB Codec ID/Info                    : The same subtitle format used on DVDs Language                         : English  Menu 00:00:00.000                     : en:Chapter 1 00:04:31.854                     : en:Chapter 2 00:09:14.303                     : en:Chapter 3 00:11:18.094                     : en:Chapter 4 00:17:36.889                     : en:Chapter 5 00:25:54.177                     : en:Chapter 6 00:33:07.026                     : en:Chapter 7 00:44:41.011                     : en:Chapter 8 00:49:35.973                     : en:Chapter 9 00:53:39.758                     : en:Chapter 10 00:58:33.134                     : en:Chapter 11 01:07:06.647                     : en:Chapter 12 01:08:56.298                     : en:Chapter 13 01:18:07.933                     : en:Chapter 14 01:29:35.787                     : en:Chapter 15 01:37:48.070                     : en:Chapter 16 01:40:48.250                     : en:Chapter 17 01:44:25.759                     : en:Chapter 18 01:48:43.850                     : en:Chapter 19 01:59:32.874                     : en:Chapter 20 02:02:01.022                     : en:Chapter 21 02:06:50.060                     : en:Chapter 22 02:17:19.731                     : en:Chapter 23 02:23:24.554                     : en:Chapter 24


#####http://www.imdb.com/title/tt0068240/######